# xmcd
#
# Track frame offsets:
#	150
#	16888
#	31960
#	50595
#	65390
#	81229
#	101182
#	118286
#	141619
#	154575
#	171700
#	206399
#
# Disc length: 2975 seconds
#
# Revision: 1
# Processed by: cddbd v1.5.2PL0 Copyright (c) Steve Scherf et al.
# Submitted via: audiograbber 1.83.01
#
DISCID=af0b9d0c
DTITLE=Gretchen Wilson - STILL Here for the Party (LIVE) 
DYEAR=2014
DGENRE=Country Rock
TTITLE0=Here for the Party
TTITLE1=Homewrecker
TTITLE2=When I Think About Cheatin´
TTITLE3=When it Rains
TTITLE4=Holding You 
TTITLE5=Chariot 
TTITLE6=What happend
TTITLE7=Pocahontas Proud
TTITLE8=The Bed
TTITLE9=Redneck Woman 
TTITLE10=All Jacked Up 
TTITLE11=Rock n Roll
EXTD=
EXTT0=
EXTT1=
EXTT2=
EXTT3=
EXTT4=
EXTT5=
EXTT6=
EXTT7=
EXTT8=
EXTT9=
EXTT10=
EXTT11=
PLAYORDER=
